<?xml version="1.0" encoding="UTF-8" standalone="no"?>
<!DOCTYPE svg PUBLIC "-//W3C//DTD SVG 1.1//EN" "http://www.w3.org/Graphics/SVG/1.1/DTD/svg11.dtd">
<svg width="100%" height="100%" viewBox="0 0 500 105" version="1.1" xmlns="http://www.w3.org/2000/svg" xmlns:xlink="http://www.w3.org/1999/xlink" xml:space="preserve" xmlns:serif="http://www.serif.com/" style="fill-rule:evenodd;clip-rule:evenodd;stroke-linejoin:round;stroke-miterlimit:2;">
    <g transform="matrix(2.607605,0,0,2.607605,-282.401689,-415.787158)">
        <path d="M127.066,198.095C123.534,198.095 120.43,197.343 117.752,195.837C115.075,194.332 112.987,192.187 111.49,189.404C109.993,186.621 109.244,183.317 109.244,179.492C109.244,175.488 110.046,172.09 111.649,169.299C113.252,166.508 115.396,164.384 118.082,162.927C120.767,161.47 123.746,160.742 127.017,160.742C129.166,160.742 131.164,161.047 133.011,161.657C134.858,162.268 136.498,163.134 137.931,164.258C139.363,165.381 140.514,166.703 141.385,168.225C142.256,169.747 142.789,171.419 142.984,173.242L133.023,173.242C132.877,172.623 132.637,172.07 132.303,171.582C131.969,171.093 131.554,170.683 131.058,170.349C130.562,170.015 129.992,169.763 129.349,169.592C128.706,169.421 127.994,169.336 127.213,169.336C125.569,169.336 124.161,169.73 122.989,170.52C121.817,171.309 120.926,172.453 120.316,173.95C119.705,175.447 119.4,177.246 119.4,179.345C119.4,181.478 119.693,183.301 120.279,184.814C120.865,186.328 121.732,187.488 122.879,188.293C124.027,189.099 125.455,189.502 127.164,189.502C128.661,189.502 129.91,189.282 130.911,188.843C131.912,188.403 132.661,187.78 133.158,186.975C133.654,186.169 133.902,185.221 133.902,184.131L135.611,184.326L127.31,184.326L127.31,177.295L143.424,177.295L143.424,182.324C143.424,185.644 142.724,188.48 141.324,190.832C139.924,193.184 137.992,194.983 135.526,196.228C133.06,197.473 130.24,198.095 127.066,198.095Z" style="fill-rule:nonzero;"/>
        <path d="M141.156,197.607L152.948,161.23L166.424,161.23L178.656,197.607L167.474,197.607L163.251,183.496C162.339,180.436 161.485,177.258 160.687,173.962C159.89,170.666 159.133,167.391 158.417,164.135L160.663,164.135C159.979,167.391 159.287,170.666 158.588,173.962C157.888,177.258 157.098,180.436 156.219,183.496L152.191,197.607L141.156,197.607ZM149.896,190.625L149.896,183.252L169.916,183.252L169.916,190.625L149.896,190.625Z" style="fill-rule:nonzero;"/>
        <path d="M178.854,197.607L178.854,161.23L194.528,161.23C197.23,161.23 199.594,161.723 201.62,162.707C203.646,163.692 205.225,165.108 206.356,166.955C207.488,168.803 208.053,171.012 208.053,173.584C208.053,176.188 207.475,178.385 206.32,180.176C205.164,181.966 203.545,183.317 201.461,184.228C199.378,185.14 196.953,185.595 194.186,185.595L184.811,185.595L184.811,177.929L192.184,177.929C193.356,177.929 194.357,177.783 195.187,177.49C196.017,177.197 196.652,176.733 197.091,176.098C197.531,175.464 197.75,174.625 197.75,173.584C197.75,172.542 197.531,171.696 197.091,171.045C196.652,170.394 196.017,169.913 195.187,169.604C194.357,169.295 193.356,169.14 192.184,169.14L188.717,169.14L188.717,197.607L178.854,197.607ZM198.532,197.607L189.645,180.908L200.143,180.908L209.274,197.607L198.532,197.607Z" style="fill-rule:nonzero;"/>
        <path d="M222.997,197.607L213.036,197.607L213.036,189.209L222.607,189.209C224.413,189.209 225.955,188.924 227.233,188.354C228.511,187.785 229.483,186.788 230.151,185.364C230.818,183.939 231.152,181.966 231.152,179.443C231.152,176.904 230.81,174.922 230.126,173.498C229.443,172.074 228.446,171.073 227.135,170.495C225.825,169.918 224.218,169.629 222.314,169.629L212.89,169.629L212.89,161.23L222.851,161.23C226.594,161.23 229.825,161.959 232.543,163.415C235.261,164.872 237.361,166.959 238.842,169.677C240.323,172.396 241.064,175.651 241.064,179.443C241.064,183.219 240.327,186.466 238.854,189.184C237.381,191.902 235.294,193.986 232.592,195.434C229.89,196.883 226.692,197.607 222.997,197.607ZM218.847,161.23L218.847,197.607L208.984,197.607L208.984,161.23L218.847,161.23Z" style="fill-rule:nonzero;"/>
        <path d="M241.848,197.607L241.848,161.23L268.068,161.23L268.068,169.189L251.711,169.189L251.711,175.342L266.701,175.342L266.701,183.105L251.711,183.105L251.711,189.648L267.971,189.648L267.971,197.607L241.848,197.607Z" style="fill-rule:nonzero;"/>
        <path d="M269.365,197.607L269.365,192.138L282.842,174.145C283.9,172.729 285.084,171.309 286.394,169.885C287.704,168.461 289.035,167.041 290.386,165.625L290.996,168.799C289.254,168.994 287.513,169.108 285.771,169.14C284.03,169.173 282.288,169.189 280.547,169.189L269.414,169.189L269.414,161.23L299.101,161.23L299.101,166.699L285.918,184.326C284.811,185.807 283.578,187.288 282.219,188.769C280.86,190.25 279.481,191.732 278.081,193.213L277.471,190.039C279.359,189.843 281.243,189.73 283.122,189.697C285.002,189.664 286.878,189.648 288.75,189.648L299.053,189.648L299.053,197.607L269.365,197.607Z" style="fill-rule:nonzero;"/>
    </g>
</svg>
